<?xml version="1.0" encoding="UTF-8"?>
<svg xmlns="http://www.w3.org/2000/svg" viewBox="0 0 100 100">
  <g transform="translate(10,28.35) scale(0.03716)">
    <path fill="#1d1d1b" d="M2152.88,609.82c-29.7,117.58-65,250.84-101.58,347.77-19.9,52.72-39.45,92.81-59.82,122.62-26.36,38.64-72.06,84.69-140.14,84.69-37.47,0-92.17-14.62-140.25-84.16-20.65-29.91-40.48-70.07-60.56-122.76-30.19-79.08-61.56-186.62-101.68-348.65-30.33-122.33-54.92-210.5-77.42-277.34-2.63-7.84-5.14-15.19-7.59-22.07-2.45,6.88-4.97,14.23-7.56,22.07-21.86,65.53-45.84,151.21-77.81,277.84-29.7,117.58-65,250.84-101.61,347.77-19.87,52.72-39.45,92.81-59.78,122.62-26.36,38.64-72.06,84.69-140.14,84.69-37.47,0-92.17-14.62-140.25-84.16-20.65-29.91-40.48-70.07-60.56-122.76-30.19-79.08-61.56-186.62-101.72-348.65-30.3-122.33-54.89-210.5-77.38-277.34-2.63-7.84-5.14-15.19-7.59-22.07-2.45,6.88-4.97,14.23-7.56,22.07-21.86,65.53-45.84,151.21-77.84,277.84-29.66,117.58-64.96,250.84-101.58,347.77-19.9,52.72-39.45,92.81-59.78,122.62-26.36,38.64-72.09,84.69-140.14,84.69-37.47,0-92.21-14.62-140.25-84.16-20.65-29.91-40.48-70.07-60.6-122.76-30.16-79.08-61.52-186.62-101.68-348.65l216.96-53.75c30.33,122.33,54.92,210.46,77.38,277.34,2.63,7.84,5.18,15.15,7.63,22.07,2.45-6.92,4.93-14.26,7.56-22.07,21.86-65.53,45.84-151.21,77.81-277.84,29.7-117.58,65-250.84,101.58-347.8,19.9-52.69,39.45-92.81,59.82-122.58C575.08,46.05,620.78,0,688.86,0c37.47,0,92.18,14.62,140.21,84.16,20.68,29.91,40.52,70.07,60.6,122.76,30.16,79.08,61.52,186.59,101.68,348.65,30.33,122.33,54.92,210.46,77.42,277.34,2.63,7.81,5.14,15.15,7.59,22.07,2.45-6.92,4.97-14.26,7.56-22.07,21.86-65.53,45.84-151.21,77.81-277.84,29.7-117.58,65-250.84,101.58-347.8,19.9-52.69,39.49-92.81,59.82-122.58C1349.49,46.05,1395.18,0,1463.27,0c37.47,0,92.17,14.62,140.25,84.16,20.65,29.91,40.48,70.07,60.56,122.76,30.19,79.08,61.56,186.59,101.72,348.65,30.3,122.33,54.89,210.46,77.38,277.34,2.63,7.84,5.14,15.15,7.59,22.07,2.45-6.92,4.97-14.26,7.56-22.07,21.86-65.53,45.84-151.21,77.84-277.84l216.71,54.74Z"/>
  </g>
</svg>
